<?xml version="1.0" encoding="UTF-8" standalone="no"?>
<svg
   version="1.1"
   width="256"
   height="256"
   viewBox="0 0 256 256"
   xml:space="preserve"
   id="svg4"
   sodipodi:docname="arrow-next.svg"
   inkscape:version="1.4 (86a8ad7, 2024-10-11)"
   xmlns:inkscape="http://www.inkscape.org/namespaces/inkscape"
   xmlns:sodipodi="http://sodipodi.sourceforge.net/DTD/sodipodi-0.dtd"
   xmlns="http://www.w3.org/2000/svg"
   xmlns:svg="http://www.w3.org/2000/svg"><sodipodi:namedview
   id="namedview4"
   pagecolor="#ffffff"
   bordercolor="#000000"
   borderopacity="0.25"
   inkscape:showpageshadow="2"
   inkscape:pageopacity="0.0"
   inkscape:pagecheckerboard="0"
   inkscape:deskcolor="#d1d1d1"
   inkscape:zoom="1.9648438"
   inkscape:cx="128"
   inkscape:cy="128.50894"
   inkscape:window-width="1280"
   inkscape:window-height="747"
   inkscape:window-x="-8"
   inkscape:window-y="-8"
   inkscape:window-maximized="1"
   inkscape:current-layer="svg4" />

<defs
   id="defs1">
</defs>
<g
   style="opacity:1;fill:#000000;fill-rule:nonzero;stroke:none;stroke-width:0;stroke-linecap:butt;stroke-linejoin:miter;stroke-miterlimit:10;stroke-dasharray:none"
   transform="matrix(0,2.81,-2.81,0,254.33595,1.4337917)"
   id="g4">
	<path
   d="M 9.518,37.866 H 1 c -0.552,0 -1,-0.448 -1,-1 0,-0.552 0.448,-1 1,-1 h 8.518 c 0.552,0 1,0.448 1,1 0,0.552 -0.448,1 -1,1 z"
   style="opacity:1;fill:#000000;fill-rule:nonzero;stroke:none;stroke-width:1;stroke-linecap:butt;stroke-linejoin:miter;stroke-miterlimit:10;stroke-dasharray:none"
   stroke-linecap="round"
   id="path1" />
	<path
   d="m 57.872,77.188 c -0.603,0 -1.206,-0.229 -1.665,-0.688 L 46.62,66.913 c -0.918,-0.92 -0.918,-2.414 0,-3.332 l 9.447,-9.447 H 29.181 c -0.552,0 -1,-0.447 -1,-1 0,-0.553 0.448,-1 1,-1 h 29.301 c 0.404,0 0.77,0.243 0.924,0.617 0.155,0.374 0.069,0.804 -0.217,1.09 L 48.034,64.995 c -0.139,0.139 -0.139,0.365 10e-4,0.505 l 9.585,9.585 c 0.139,0.14 0.365,0.139 0.504,0 L 87.904,45.304 C 87.988,45.22 88.003,45.113 88,45.038 88.003,44.888 87.988,44.781 87.904,44.697 L 58.124,14.916 c -0.181,-0.18 -0.321,-0.184 -0.504,0 l -9.586,9.585 c -0.139,0.139 -0.139,0.365 0,0.504 l 11.154,11.153 c 0.286,0.286 0.372,0.716 0.217,1.09 -0.154,0.374 -0.52,0.617 -0.924,0.617 h -40.14 c -0.552,0 -1,-0.448 -1,-1 0,-0.552 0.448,-1 1,-1 h 37.727 l -9.447,-9.447 c -0.918,-0.919 -0.918,-2.414 0,-3.332 L 56.207,13.5 c 0.892,-0.891 2.444,-0.89 3.332,0 l 29.78,29.78 c 0.464,0.463 0.705,1.087 0.68,1.755 0.025,0.593 -0.216,1.216 -0.68,1.68 l -29.78,29.781 c -0.46,0.462 -1.063,0.692 -1.667,0.692 z"
   style="opacity:1;fill:#000000;fill-rule:nonzero;stroke:none;stroke-width:1;stroke-linecap:butt;stroke-linejoin:miter;stroke-miterlimit:10;stroke-dasharray:none"
   stroke-linecap="round"
   id="path2" />
	<path
   d="m 20.862,54.134 h -8.295 c -0.552,0 -1,-0.447 -1,-1 0,-0.553 0.448,-1 1,-1 h 8.295 c 0.552,0 1,0.447 1,1 0,0.553 -0.448,1 -1,1 z"
   style="opacity:1;fill:#000000;fill-rule:nonzero;stroke:none;stroke-width:1;stroke-linecap:butt;stroke-linejoin:miter;stroke-miterlimit:10;stroke-dasharray:none"
   stroke-linecap="round"
   id="path3" />
	<path
   d="M 41.533,46 H 7.307 c -0.552,0 -1,-0.448 -1,-1 0,-0.552 0.448,-1 1,-1 h 34.226 c 0.552,0 1,0.448 1,1 0,0.552 -0.448,1 -1,1 z"
   style="opacity:1;fill:#000000;fill-rule:nonzero;stroke:none;stroke-width:1;stroke-linecap:butt;stroke-linejoin:miter;stroke-miterlimit:10;stroke-dasharray:none"
   stroke-linecap="round"
   id="path4" />
</g>
</svg>
