<?xml version="1.0" encoding="UTF-8" standalone="no"?>
<svg
   viewBox="0 0 384 512"
   version="1.1"
   id="svg1"
   sodipodi:docname="hand-point-down.svg"
   inkscape:version="1.4 (86a8ad7, 2024-10-11)"
   xmlns:inkscape="http://www.inkscape.org/namespaces/inkscape"
   xmlns:sodipodi="http://sodipodi.sourceforge.net/DTD/sodipodi-0.dtd"
   xmlns="http://www.w3.org/2000/svg"
   xmlns:svg="http://www.w3.org/2000/svg">
  <defs
     id="defs1" />
  <sodipodi:namedview
     id="namedview1"
     pagecolor="#ffffff"
     bordercolor="#000000"
     borderopacity="0.25"
     inkscape:showpageshadow="2"
     inkscape:pageopacity="0.0"
     inkscape:pagecheckerboard="0"
     inkscape:deskcolor="#d1d1d1"
     inkscape:zoom="0.98242188"
     inkscape:cx="191.87276"
     inkscape:cy="257.01789"
     inkscape:window-width="1280"
     inkscape:window-height="747"
     inkscape:window-x="-8"
     inkscape:window-y="-8"
     inkscape:window-maximized="1"
     inkscape:current-layer="svg1" />
  <!-- Font Awesome Free 5.15.1 by @fontawesome - https://fontawesome.com License - https://fontawesome.com/license/free (Icons: CC BY 4.0, Fonts: SIL OFL 1.1, Code: MIT License) -->
  <path
     d="m 260.83147,-21.812886 0.83585,149.231666 c 8.21516,-5.88711 16.49854,-10.66258 24.83834,-14.29234 31.73314,-13.810965 66.97639,9.52201 67.15406,43.74355 0.0963,18.61575 -10.71646,32.26353 -28.8675,40.16231 -28.21767,12.28025 -63.88749,79.00708 -76.7195,107.9654 -7.85586,17.90129 -25.31923,28.59526 -43.68488,28.70913 l -9.2e-4,0.002 -171.523384,0.96078 C 21.051727,334.73571 10.918738,326.19633 9.0473823,314.53362 1.5351676,267.73797 -29.780928,252.99014 -29.96003,191.01917 c -0.0083,-2.72399 -0.269229,-13.2527 -0.284608,-15.99866 -0.283713,-50.6532 21.6647592,-81.696623 70.855252,-72.998 C 49.803304,83.373732 79.92383,71.06383 102.8325,85.223744 123.87113,60.46052 156.60085,62.283225 173.74011,78.527486 l -0.55927,-99.849436 c -0.13526,-24.149617 19.94976,-44.912445 43.57439,-45.04476 23.28264,-0.130412 43.9449,21.104193 44.07624,44.553824 z m -17.96018,395.306796 0.26885,47.99924 c 0.0742,13.2548 -10.61042,24.05982 -23.86521,24.13406 L 27.277946,446.70259 C 14.023155,446.77683 3.2181419,436.09219 3.1438961,422.83739 L 2.8750529,374.83814 C 2.8008139,361.58335 13.485462,350.77834 26.740253,350.7041 l 191.996987,-1.07539 c 13.25479,-0.0742 24.05981,10.61041 24.13405,23.8652 z M 31.009039,398.68094 c 0.06186,11.04583 9.065875,19.94953 20.111701,19.88766 11.045829,-0.0619 19.949537,-9.06587 19.887666,-20.1117 -0.06186,-11.04582 -9.065876,-19.94953 -20.111701,-19.88766 -11.045826,0.0619 -19.949538,9.06587 -19.887666,20.1117 z"
     id="path1"
     style="fill:#00aad4" />
</svg>
